<?xml version="1.0" encoding="UTF-8" standalone="no"?>
<svg id="rowMaths" xmlns="http://www.w3.org/2000/svg" viewBox="0 0 400 400" width="100px" height="100px" fill="#000000">
    <path d="M 55.312498,217.42126 44.999999,202.26501 34.427082,217.42126 q -2.291666,3.17708 -3.90625,4.53125 -1.5625,1.35417 -4.010416,1.35417 -2.708333,0 -4.635417,-1.66667 -1.875,-1.71875 -1.875,-3.90625 0,-2.23958 2.916667,-6.40625 l 12.864583,-18.4375 -11.40625,-15.36458 q -2.96875,-3.80209 -2.96875,-6.61459 0,-2.1875 1.770834,-3.80208 1.770833,-1.61458 4.635416,-1.61458 2.5,0 4.114583,1.40625 1.666667,1.40625 3.854167,4.42708 l 9.21875,12.60417 8.958333,-12.60417 q 2.239583,-3.125 3.854166,-4.47917 1.666667,-1.35416 4.114584,-1.35416 2.8125,0 4.635416,1.61458 1.875,1.5625 1.875,3.80208 0,1.61459 -0.78125,3.125 -0.729166,1.45834 -2.291666,3.48959 l -11.40625,15.36458 12.864583,18.4375 q 3.020833,4.32292 3.020833,6.51042 0,2.23958 -1.875,3.85416 -1.875,1.61459 -4.635416,1.61459 -2.447917,0 -4.166667,-1.40625 -1.666667,-1.40625 -3.854167,-4.47917 z" />
    <path d="m 127.95524,218.93168 h -13.4375 V 199.08793 H 94.569824 V 185.4421 h 19.947916 v -19.94792 h 13.4375 v 19.94792 h 20.05208 v 13.64583 h -20.05208 z" />
    <path d="m 190.18132,225.07751 1.30208,-3.17708 -17.5,-44.0625 q -1.61458,-3.80209 -1.61458,-5.52084 0,-1.82291 0.9375,-3.38541 0.9375,-1.5625 2.55208,-2.5 1.66667,-0.9375 3.4375,-0.9375 3.07292,0 4.63542,1.97916 1.5625,1.92709 2.76042,5.57292 l 12.03125,35 11.40625,-32.55208 q 1.35416,-3.95834 2.44791,-6.19792 1.09375,-2.23958 2.29167,-3.02083 1.25,-0.78125 3.48958,-0.78125 1.61459,0 3.07292,0.88541 1.51042,0.83334 2.29167,2.29167 0.83333,1.45833 0.83333,3.07292 -0.20833,0.98958 -0.67708,2.8125 -0.46875,1.82291 -1.14584,3.69791 l -18.54166,48.54167 q -2.39584,6.40625 -4.6875,10.05208 -2.29167,3.64584 -6.09375,5.57292 -3.75,1.97917 -10.15625,1.97917 -6.25,0 -9.375,-1.35417 -3.125,-1.35417 -3.125,-4.94792 0,-2.44791 1.45833,-3.80208 1.51042,-1.30208 4.42708,-1.30208 1.14584,0 2.23959,0.3125 1.35416,0.3125 2.34375,0.3125 2.44791,0 3.85416,-0.72917 1.40625,-0.72917 2.5,-2.55208 1.14584,-1.77084 2.60417,-5.26042 z" />
    <path d="m 300.74074,210.265 h -53.4375 v -13.64583 h 53.4375 z m 0,-23.12499 h -53.4375 v -13.64584 h 53.4375 z" />
    <path d="m 368.4616,180.54626 -26.04167,29.11458 h 27.86458 q 3.38542,0 5.10417,1.61459 1.71875,1.5625 1.71875,4.0625 0,2.39583 -1.71875,3.90625 -1.66667,1.51041 -5.10417,1.51041 h -38.54166 q -4.0625,0 -6.09375,-1.77083 -1.97917,-1.77083 -1.97917,-4.84375 0,-1.82292 1.40625,-3.64583 1.40625,-1.875 5.83334,-6.82292 4.6875,-5.20833 8.48958,-9.42708 3.85416,-4.21875 7.13541,-7.86459 3.28125,-3.69791 5.41667,-6.25 2.1875,-2.55208 3.48958,-4.375 h -21.14583 q -4.375,0 -6.61458,-0.78125 -2.23958,-0.78125 -2.23958,-4.11458 0,-2.44792 1.66666,-3.90625 1.71875,-1.45833 4.84375,-1.45833 h 32.65625 q 4.53125,0 6.92708,1.35416 2.44792,1.30209 2.44792,4.73959 0,1.14583 -0.46875,2.39583 -0.46875,1.19792 -1.04167,1.97917 -0.57291,0.78125 -1.5625,1.92708 -0.98958,1.09375 -2.44791,2.65625 z" />
</svg>
