<?xml version="1.0" encoding="UTF-8" standalone="no"?>
<svg id="colMaths" xmlns="http://www.w3.org/2000/svg" viewBox="0 0 400 400" width="100px" height="100px" fill="#000000">
   <path d="m 223.33167,128.8914 -10.3125,-15.15625 -10.57292,15.15625 q -2.29166,3.17708 -3.90625,4.53125 -1.5625,1.35416 -4.01041,1.35416 -2.70834,0 -4.63542,-1.66666 -1.875,-1.71875 -1.875,-3.90625 0,-2.23959 2.91667,-6.40625 l 12.86458,-18.4375 -11.40625,-15.364584 q -2.96875,-3.802083 -2.96875,-6.614583 0,-2.1875 1.77083,-3.802084 1.77084,-1.614583 4.63542,-1.614583 2.5,0 4.11458,1.40625 1.66667,1.40625 3.85417,4.427083 l 9.21875,12.604167 8.95833,-12.604167 q 2.23959,-3.125 3.85417,-4.479166 1.66667,-1.354167 4.11458,-1.354167 2.8125,0 4.63542,1.614583 1.875,1.5625 1.875,3.802084 0,1.614583 -0.78125,3.125 -0.72917,1.458333 -2.29167,3.489583 l -11.40625,15.364584 12.86459,18.4375 q 3.02083,4.32291 3.02083,6.51041 0,2.23959 -1.875,3.85417 -1.875,1.61458 -4.63542,1.61458 -2.44791,0 -4.16666,-1.40625 -1.66667,-1.40625 -3.85417,-4.47916 z" />
   <path d="m 154.41741,169.40338 h -13.4375 V 149.55963 H 121.032 v -13.64584 h 19.94791 v -19.94791 h 13.4375 v 19.94791 h 20.05209 v 13.64584 h -20.05209 z" />
   <path d="m 205.46709,211.07595 1.30208,-3.17708 -17.5,-44.0625 q -1.61458,-3.80208 -1.61458,-5.52083 0,-1.82292 0.9375,-3.38542 0.9375,-1.5625 2.55208,-2.5 1.66667,-0.9375 3.4375,-0.9375 3.07292,0 4.63542,1.97917 1.5625,1.92708 2.76041,5.57291 l 12.03125,35 11.40625,-32.55208 q 1.35417,-3.95833 2.44792,-6.19792 1.09375,-2.23958 2.29167,-3.02083 1.25,-0.78125 3.48958,-0.78125 1.61458,0 3.07292,0.88542 1.51041,0.83333 2.29166,2.29166 0.83334,1.45834 0.83334,3.07292 -0.20834,0.98958 -0.67709,2.8125 -0.46875,1.82292 -1.14583,3.69792 L 219.4775,212.7947 q -2.39583,6.40625 -4.6875,10.05209 -2.29166,3.64583 -6.09375,5.57291 -3.75,1.97917 -10.15625,1.97917 -6.25,0 -9.375,-1.35417 -3.125,-1.35416 -3.125,-4.94791 0,-2.44792 1.45834,-3.80209 1.51041,-1.30208 4.42708,-1.30208 1.14583,0 2.23958,0.3125 1.35417,0.3125 2.34375,0.3125 2.44792,0 3.85417,-0.72917 1.40625,-0.72916 2.5,-2.55208 1.14583,-1.77083 2.60417,-5.26042 z" />
   <path d="m 231.01397,274.69569 -26.04167,29.11458 h 27.86458 q 3.38542,0 5.10417,1.61459 1.71875,1.5625 1.71875,4.0625 0,2.39583 -1.71875,3.90625 -1.66667,1.51041 -5.10417,1.51041 h -38.54166 q -4.0625,0 -6.09375,-1.77083 -1.97917,-1.77083 -1.97917,-4.84375 0,-1.82292 1.40625,-3.64583 1.40625,-1.875 5.83333,-6.82292 4.6875,-5.20833 8.48959,-9.42708 3.85416,-4.21875 7.13541,-7.86459 3.28125,-3.69791 5.41667,-6.25 2.1875,-2.55208 3.48958,-4.375 H 196.8473 q -4.375,0 -6.61458,-0.78125 -2.23959,-0.78125 -2.23959,-4.11458 0,-2.44792 1.66667,-3.90625 1.71875,-1.45833 4.84375,-1.45833 h 32.65625 q 4.53125,0 6.92708,1.35416 2.44792,1.30209 2.44792,4.73959 0,1.14583 -0.46875,2.39583 -0.46875,1.19792 -1.04167,1.97917 -0.57291,0.78125 -1.5625,1.92708 -0.98958,1.09375 -2.44791,2.65625 z" />
   <path d="M 120,243.2 V 244.34462 248 h 136.38282 v -4.8 z m 4.38282,2.29024 H 252 v 0.21852 H 124.38282 Z" />
   <path d="M 120,323.2 V 324.34462 328 h 136.38282 v -4.8 z m 4.38282,2.29024 H 252 v 0.21852 H 124.38282 Z" />
</svg>