<?xml version="1.0" encoding="UTF-8" standalone="yes" ?>
<!-- https://iconsrepo.com/icon/5186/menu/ -->
<svg id="menu-icon" xmlns="http://www.w3.org/2000/svg" viewBox="0 0 56 56" width="100px" height="100px">
    <path d="M28,0C12.561,0,0,12.561,0,28s12.561,28,28,28s28-12.561,28-28S43.439,0,28,0z 
    M40,41H16c-1.104,0-2-0.896-2-2s0.896-2,2-2h24c1.104,0,2,0.896,2,2S41.104,41,40,41z 
    M40,30H16c-1.104,0-2-0.896-2-2s0.896-2,2-2h24c1.104,0,2,0.896,2,2S41.104,30,40,30z 
    M40,19H16c-1.104,0-2-0.896-2-2s0.896-2,2-2h24c1.104,0,2,0.896,2,2S41.104,19,40,19z">
    </path>
</svg>