<?xml version="1.0" encoding="UTF-8" standalone="no"?>
<svg id="ltrWriting" xmlns="http://www.w3.org/2000/svg" viewBox="0 0 340 340" width="100px" height="100px" fill="#000000">
  <path d="M51.478,80.57h170.667c4.143,0,7.5-3.357,7.5-7.5s-3.357-7.5-7.5-7.5H51.478c-4.142,0-7.5,3.357-7.5,7.5 S47.336,80.57,51.478,80.57z" />
  <path d="M51.478,112.914h189.334c4.143,0,7.5-3.357,7.5-7.5s-3.357-7.5-7.5-7.5H51.478c-4.142,0-7.5,3.357-7.5,7.5 S47.336,112.914,51.478,112.914z" />
  <path d="m 331.9997,122.15056 c -10.31122,-10.02811 -26.86997,-10.3611 -37.59928,-1.00301 V 7.5680007 C 294.40042,3.3874371 290.9177,0 286.61954,0 H 7.7808783 C 3.4837586,0 0,3.3874371 0,7.5680007 V 332.432 C 0,336.61256 3.4837586,340 7.7808783,340 H 286.61851 c 4.29815,0 7.78087,-3.38744 7.78087,-7.568 V 196.3543 l 37.47168,-36.44648 c 0.0208,-0.0202 0.0363,-0.0414 0.056,-0.0605 0.0239,-0.0222 0.0498,-0.0414 0.0726,-0.0636 10.66707,-10.37623 10.66707,-27.25792 0,-37.63314 z M 15.561757,324.864 V 15.136001 H 278.83763 V 136.22401 l -29.76445,28.95114 c -1.17544,-0.69424 -2.54902,-1.09989 -4.02427,-1.09989 H 48.624264 c -4.297119,0 -7.780878,3.38744 -7.780878,7.56801 0,4.18056 3.483759,7.568 7.780878,7.568 H 234.6412 l -17.99354,17.50125 H 48.624264 c -4.297119,0 -7.780878,3.38744 -7.780878,7.568 0,4.18056 3.483759,7.568 7.780878,7.568 H 201.08591 l -17.99354,17.50126 H 48.624264 c -4.297119,0 -7.780878,3.38743 -7.780878,7.568 0,4.18056 3.483759,7.568 7.780878,7.568 H 167.53165 l -14.31371,13.92209 c -0.2106,0.20484 -0.40253,0.41977 -0.58408,0.64076 -0.0467,0.0585 -0.0892,0.12008 -0.13487,0.17961 -0.13383,0.17356 -0.26144,0.35015 -0.37763,0.53178 -0.0436,0.0676 -0.0851,0.13824 -0.12657,0.20787 -0.11308,0.18869 -0.21579,0.38143 -0.31124,0.57618 -0.0197,0.0414 -0.0446,0.0777 -0.0643,0.11906 l -1.27191,2.7598 c -1.28022,-0.90109 -2.84884,-1.43691 -4.54819,-1.43691 H 48.624264 c -4.297119,0 -7.780878,3.38744 -7.780878,7.568 0,4.18057 3.483759,7.568 7.780878,7.568 h 95.409126 l -10.01866,21.73429 c -0.17947,0.39051 -0.31642,0.7901 -0.42431,1.19474 -2.03237,4.20579 -1.27814,9.38129 2.28861,12.84945 2.20251,2.14326 5.1302,3.32286 8.2467,3.32286 1.76885,0 3.47131,-0.39253 5.02126,-1.11401 0.3963,-0.10393 0.7895,-0.22805 1.17128,-0.39454 l 39.27061,-17.12185 c 0.0405,-0.0182 0.0768,-0.0414 0.11619,-0.0605 0.20542,-0.0928 0.40772,-0.19475 0.60484,-0.30777 0.0685,-0.0383 0.13694,-0.0767 0.20334,-0.11705 0.194,-0.11705 0.38178,-0.24419 0.56645,-0.37941 0.0539,-0.0404 0.111,-0.0767 0.16495,-0.11806 0.22928,-0.1776 0.45233,-0.36528 0.66397,-0.57113 l 86.92901,-84.55072 V 324.864 Z m 157.358403,-36.58876 -20.30186,8.85153 c -0.0851,-0.0878 -0.15977,-0.18062 -0.24692,-0.26639 -0.0871,-0.0848 -0.18155,-0.15742 -0.27077,-0.23915 l 9.10155,-19.74441 z m 13.48686,-8.28848 -16.68324,-16.2268 128.95924,-125.43103 16.68324,16.2268 z M 324.3983,141.93432 311.66049,129.545 c 3.3437,-0.27346 6.78285,0.82542 9.33601,3.30873 2.55317,2.4823 3.68191,5.82938 3.4018,9.08059 z" />
  <path d="M51.478,145.258h160c4.143,0,7.5-3.357,7.5-7.5s-3.357-7.5-7.5-7.5h-160c-4.142,0-7.5,3.357-7.5,7.5 S47.336,145.258,51.478,145.258z" />
</svg>
