<?xml version="1.0" encoding="UTF-8" standalone="no"?>
<svg id="rtlWriting" xmlns="http://www.w3.org/2000/svg" viewBox="0 0 340 340" width="100px" height="100px" fill="#000000">
  <path d="m 288.52196,80.57 h -170.667 c -4.143,0 -7.5,-3.357 -7.5,-7.5 0,-4.143 3.357,-7.5 7.5,-7.5 h 170.667 c 4.142,0 7.5,3.357 7.5,7.5 0,4.143 -3.358,7.5 -7.5,7.5 z" />
  <path d="M 288.52196,112.914 H 99.187963 c -4.143,0 -7.5,-3.357 -7.5,-7.5 0,-4.143 3.357,-7.5 7.5,-7.5 H 288.52196 c 4.142,0 7.5,3.357 7.5,7.5 0,4.143 -3.358,7.5 -7.5,7.5 z" />
  <path d="M 8.0002625,122.15056 C 18.311483,112.12245 34.870233,111.78946 45.599543,121.14755 V 7.5680007 C 45.599543,3.3874371 49.082263,0 53.380423,0 H 332.21908 c 4.29712,0 7.78088,3.3874371 7.78088,7.5680007 V 332.432 c 0,4.18056 -3.48376,7.568 -7.78088,7.568 H 53.381453 c -4.29815,0 -7.78087,-3.38744 -7.78087,-7.568 V 196.3543 L 8.1289025,159.90782 c -0.0208,-0.0202 -0.0363,-0.0414 -0.056,-0.0605 -0.0239,-0.0222 -0.0498,-0.0414 -0.0726,-0.0636 -10.66707,-10.37623 -10.66707,-27.25792 0,-37.63314 z M 324.43821,324.864 V 15.136001 H 61.162333 V 136.22401 l 29.76445,28.95114 c 1.17544,-0.69424 2.54902,-1.09989 4.02427,-1.09989 H 291.3757 c 4.29712,0 7.78088,3.38744 7.78088,7.56801 0,4.18056 -3.48376,7.568 -7.78088,7.568 H 105.35876 l 17.99354,17.50125 h 168.0234 c 4.29712,0 7.78088,3.38744 7.78088,7.568 0,4.18056 -3.48376,7.568 -7.78088,7.568 H 138.91405 l 17.99354,17.50126 H 291.3757 c 4.29712,0 7.78088,3.38743 7.78088,7.568 0,4.18056 -3.48376,7.568 -7.78088,7.568 H 172.46831 l 14.31371,13.92209 c 0.2106,0.20484 0.40253,0.41977 0.58408,0.64076 0.0467,0.0585 0.0892,0.12008 0.13487,0.17961 0.13383,0.17356 0.26144,0.35015 0.37763,0.53178 0.0436,0.0676 0.0851,0.13824 0.12657,0.20787 0.11308,0.18869 0.21579,0.38143 0.31124,0.57618 0.0197,0.0414 0.0446,0.0777 0.0643,0.11906 l 1.27191,2.7598 c 1.28022,-0.90109 2.84884,-1.43691 4.54819,-1.43691 h 97.17489 c 4.29712,0 7.78088,3.38744 7.78088,7.568 0,4.18057 -3.48376,7.568 -7.78088,7.568 h -95.40913 l 10.01866,21.73429 c 0.17947,0.39051 0.31642,0.7901 0.42431,1.19474 2.03237,4.20579 1.27814,9.38129 -2.28861,12.84945 -2.20251,2.14326 -5.1302,3.32286 -8.2467,3.32286 -1.76885,0 -3.47131,-0.39253 -5.02126,-1.11401 -0.3963,-0.10393 -0.7895,-0.22805 -1.17128,-0.39454 l -39.27061,-17.12185 c -0.0405,-0.0182 -0.0768,-0.0414 -0.11619,-0.0605 -0.20542,-0.0928 -0.40772,-0.19475 -0.60484,-0.30777 -0.0685,-0.0383 -0.13694,-0.0767 -0.20334,-0.11705 -0.194,-0.11705 -0.38178,-0.24419 -0.56645,-0.37941 -0.0539,-0.0404 -0.111,-0.0767 -0.16495,-0.11806 -0.22928,-0.1776 -0.45233,-0.36528 -0.66397,-0.57113 L 61.162333,211.48832 V 324.864 Z m -157.35841,-36.58876 20.30186,8.85153 c 0.0851,-0.0878 0.15977,-0.18062 0.24692,-0.26639 0.0871,-0.0848 0.18155,-0.15742 0.27077,-0.23915 l -9.10155,-19.74441 z m -13.48686,-8.28848 16.68324,-16.2268 -128.959237,-125.43103 -16.68324,16.2268 z M 15.601663,141.93432 28.339473,129.545 c -3.3437,-0.27346 -6.78285,0.82542 -9.33601,3.30873 -2.55317,2.4823 -3.68191,5.82938 -3.4018,9.08059 z" />
  <path d="m 288.52196,145.258 h -160 c -4.143,0 -7.5,-3.357 -7.5,-7.5 0,-4.143 3.357,-7.5 7.5,-7.5 h 160 c 4.142,0 7.5,3.357 7.5,7.5 0,4.143 -3.358,7.5 -7.5,7.5 z" />
</svg>
